<svg height="512pt" viewBox="0 0 512 512" width="512pt" xmlns="http://www.w3.org/2000/svg"><path d="m512 256c0 141.386719-114.613281 256-256 256s-256-114.613281-256-256 114.613281-256 256-256 256 114.613281 256 256zm0 0" fill="#ff7761"/><path d="m256 416c-71.351562.109375-134.15625-47.039062-153.960938-115.589844-19.804687-68.546875 8.171876-141.925781 68.589844-179.886718 60.417969-37.960938 138.667969-31.328126 191.835938 16.261718 3.398437 3.035156 5.34375 7.375 5.34375 11.933594s-1.945313 8.902344-5.34375 11.9375c-5.960938 5.414062-15.046875 5.46875-21.074219.128906-51.261719-46.074218-129.800781-43.285156-177.664063 6.308594-47.863281 49.597656-47.863281 128.183594 0 177.777344 47.863282 49.59375 126.402344 52.386718 177.664063 6.3125 6.03125-5.339844 15.117187-5.292969 21.089844.113281 3.414062 3.019531 5.375 7.355469 5.390625 11.914063.019531 4.558593-1.90625 8.90625-5.296875 11.957031-29.296875 26.25-67.238281 40.785156-106.574219 40.832031zm0 0" fill="#fff"/></svg>